<?xml version="1.0" encoding="utf-8"?>
<!-- Uploaded to: SVG Repo, www.svgrepo.com, Generator: SVG Repo Mixer Tools -->
<svg width="800px" height="800px" viewBox="0 0 246 246" fill="none" xmlns="http://www.w3.org/2000/svg">
<g clip-path="url(#clip0_397_2936)">
<g filter="url(#filter0_iii_397_2936)">
<path d="M0 115C0 51.4872 51.4873 0 115 0H127C192.722 0 246 53.2781 246 119V127C246 192.722 192.722 246 127 246H123C55.069 246 0 190.931 0 123V115Z" fill="url(#paint0_radial_397_2936)"/>
</g>
<g filter="url(#filter1_f_397_2936)">
<circle cx="59.5" cy="132.5" r="35.5" fill="#FF4242"/>
</g>
<g filter="url(#filter2_f_397_2936)">
<circle cx="188.5" cy="132.5" r="35.5" fill="#FF4242"/>
</g>
<g filter="url(#filter3_i_397_2936)">
<path d="M202.54 103.5C206.66 103.5 210.081 100.122 209.197 96.0978C207.794 89.7112 204.591 83.8008 199.895 79.1048C193.425 72.6348 184.65 69 175.5 69C166.35 69 157.575 72.6348 151.105 79.1048C146.651 83.5587 143.541 89.105 142.035 95.114C140.897 99.6519 144.792 103.5 149.471 103.5C153.856 103.5 157.263 99.7812 159.127 95.8113C160.009 93.9338 161.215 92.2045 162.71 90.7097C166.102 87.3176 170.703 85.4118 175.5 85.4118C180.297 85.4118 184.898 87.3176 188.29 90.7097C189.542 91.9618 190.592 93.3785 191.418 94.9089C193.766 99.2597 197.596 103.5 202.54 103.5Z" fill="#C4C4C4"/>
<path d="M202.54 103.5C206.66 103.5 210.081 100.122 209.197 96.0978C207.794 89.7112 204.591 83.8008 199.895 79.1048C193.425 72.6348 184.65 69 175.5 69C166.35 69 157.575 72.6348 151.105 79.1048C146.651 83.5587 143.541 89.105 142.035 95.114C140.897 99.6519 144.792 103.5 149.471 103.5C153.856 103.5 157.263 99.7812 159.127 95.8113C160.009 93.9338 161.215 92.2045 162.71 90.7097C166.102 87.3176 170.703 85.4118 175.5 85.4118C180.297 85.4118 184.898 87.3176 188.29 90.7097C189.542 91.9618 190.592 93.3785 191.418 94.9089C193.766 99.2597 197.596 103.5 202.54 103.5Z" fill="#221725"/>
</g>
<g filter="url(#filter4_d_397_2936)">
<g filter="url(#filter5_i_397_2936)">
<path fill-rule="evenodd" clip-rule="evenodd" d="M95.9469 118.524C105.053 112.097 111 101.493 111 89.5C111 69.8939 95.1061 54 75.5 54C55.8939 54 40 69.8939 40 89.5C40 101.241 45.6996 111.65 54.4828 118.113C59.8481 113.081 67.0642 110 75 110C83.1497 110 90.5403 113.25 95.9469 118.524Z" fill="#FAFAFA"/>
</g>
<g filter="url(#filter6_i_397_2936)">
<rect x="56.6172" y="70.6172" width="37.7471" height="37.7471" rx="18.8736" fill="#2C2F36"/>
</g>
</g>
<g filter="url(#filter7_ii_397_2936)">
<path d="M215.843 157.573C216.898 154.925 217.427 152.098 217.4 149.251C217.377 146.399 216.806 143.58 215.718 140.947C214.593 138.214 212.936 135.733 210.842 133.649C207.911 130.718 204.247 128.664 200.241 127.701C199.282 127.47 198.318 127.305 197.347 127.206C197.248 126.235 197.083 125.271 196.852 124.312C195.889 120.306 193.835 116.642 190.904 113.711C188.794 111.601 186.344 109.962 183.606 108.835C180.964 107.744 178.166 107.177 175.302 107.153C172.455 107.123 169.627 107.652 166.98 108.71C164.227 109.811 161.758 111.435 159.652 113.541C157.666 115.528 156 118.002 154.696 120.911C153.608 123.342 152.745 126.131 152.132 129.205C151.165 134.072 150.803 139.795 151.048 146.209C151.451 156.838 153.383 165.832 153.471 166.207L153.973 168.523C154.198 169.547 155 170.349 156.024 170.574L158.34 171.076C158.721 171.159 167.704 173.09 178.339 173.499C184.752 173.744 190.475 173.382 195.342 172.415C198.416 171.802 201.211 170.945 203.637 169.851C206.545 168.548 209.019 166.882 211.006 164.895C213.118 162.795 214.742 160.327 215.843 157.573Z" fill="#FA043F"/>
</g>
<g filter="url(#filter8_f_397_2936)">
<ellipse cx="187.068" cy="160.215" rx="9.66117" ry="23.3201" transform="rotate(76.4444 187.068 160.215)" fill="white" fill-opacity="0.81"/>
</g>
<g filter="url(#filter9_i_397_2936)">
<path d="M115 123L126.5 129.5C131.557 132.358 131.557 139.642 126.5 142.5V142.5C121.443 145.358 121.443 152.642 126.5 155.5V155.5C131.557 158.358 131.557 165.642 126.5 168.5L115 175" stroke="#221725" stroke-width="11" stroke-linecap="round" stroke-linejoin="round"/>
</g>
</g>
<defs>
<filter id="filter0_iii_397_2936" x="-11" y="-24" width="278" height="326" filterUnits="userSpaceOnUse" color-interpolation-filters="sRGB">
<feFlood flood-opacity="0" result="BackgroundImageFix"/>
<feBlend mode="normal" in="SourceGraphic" in2="BackgroundImageFix" result="shape"/>
<feColorMatrix in="SourceAlpha" type="matrix" values="0 0 0 0 0 0 0 0 0 0 0 0 0 0 0 0 0 0 127 0" result="hardAlpha"/>
<feMorphology radius="8" operator="erode" in="SourceAlpha" result="effect1_innerShadow_397_2936"/>
<feOffset dx="21" dy="73"/>
<feGaussianBlur stdDeviation="24"/>
<feComposite in2="hardAlpha" operator="arithmetic" k2="-1" k3="1"/>
<feColorMatrix type="matrix" values="0 0 0 0 0.682806 0 0 0 0 0.0652778 0 0 0 0 0.783333 0 0 0 0.14 0"/>
<feBlend mode="normal" in2="shape" result="effect1_innerShadow_397_2936"/>
<feColorMatrix in="SourceAlpha" type="matrix" values="0 0 0 0 0 0 0 0 0 0 0 0 0 0 0 0 0 0 127 0" result="hardAlpha"/>
<feOffset dy="-24"/>
<feGaussianBlur stdDeviation="15.5"/>
<feComposite in2="hardAlpha" operator="arithmetic" k2="-1" k3="1"/>
<feColorMatrix type="matrix" values="0 0 0 0 0.943639 0 0 0 0 0.223611 0 0 0 0 0.958333 0 0 0 0.44 0"/>
<feBlend mode="normal" in2="effect1_innerShadow_397_2936" result="effect2_innerShadow_397_2936"/>
<feColorMatrix in="SourceAlpha" type="matrix" values="0 0 0 0 0 0 0 0 0 0 0 0 0 0 0 0 0 0 127 0" result="hardAlpha"/>
<feOffset dx="-11" dy="30"/>
<feGaussianBlur stdDeviation="15.5"/>
<feComposite in2="hardAlpha" operator="arithmetic" k2="-1" k3="1"/>
<feColorMatrix type="matrix" values="0 0 0 0 1 0 0 0 0 0.766722 0 0 0 0 0.693056 0 0 0 0.68 0"/>
<feBlend mode="normal" in2="effect2_innerShadow_397_2936" result="effect3_innerShadow_397_2936"/>
</filter>
<filter id="filter1_f_397_2936" x="-15" y="58" width="149" height="149" filterUnits="userSpaceOnUse" color-interpolation-filters="sRGB">
<feFlood flood-opacity="0" result="BackgroundImageFix"/>
<feBlend mode="normal" in="SourceGraphic" in2="BackgroundImageFix" result="shape"/>
<feGaussianBlur stdDeviation="19.5" result="effect1_foregroundBlur_397_2936"/>
</filter>
<filter id="filter2_f_397_2936" x="114" y="58" width="149" height="149" filterUnits="userSpaceOnUse" color-interpolation-filters="sRGB">
<feFlood flood-opacity="0" result="BackgroundImageFix"/>
<feBlend mode="normal" in="SourceGraphic" in2="BackgroundImageFix" result="shape"/>
<feGaussianBlur stdDeviation="19.5" result="effect1_foregroundBlur_397_2936"/>
</filter>
<filter id="filter3_i_397_2936" x="141.835" y="69" width="67.5017" height="34.5" filterUnits="userSpaceOnUse" color-interpolation-filters="sRGB">
<feFlood flood-opacity="0" result="BackgroundImageFix"/>
<feBlend mode="normal" in="SourceGraphic" in2="BackgroundImageFix" result="shape"/>
<feColorMatrix in="SourceAlpha" type="matrix" values="0 0 0 0 0 0 0 0 0 0 0 0 0 0 0 0 0 0 127 0" result="hardAlpha"/>
<feMorphology radius="26.45" operator="dilate" in="SourceAlpha" result="effect1_innerShadow_397_2936"/>
<feOffset dx="9.2" dy="-9"/>
<feGaussianBlur stdDeviation="10.35"/>
<feComposite in2="hardAlpha" operator="arithmetic" k2="-1" k3="1"/>
<feColorMatrix type="matrix" values="0 0 0 0 0.462111 0 0 0 0 0.203767 0 0 0 0 0.504167 0 0 0 0.35 0"/>
<feBlend mode="normal" in2="shape" result="effect1_innerShadow_397_2936"/>
</filter>
<filter id="filter4_d_397_2936" x="24" y="42" width="103" height="96.5239" filterUnits="userSpaceOnUse" color-interpolation-filters="sRGB">
<feFlood flood-opacity="0" result="BackgroundImageFix"/>
<feColorMatrix in="SourceAlpha" type="matrix" values="0 0 0 0 0 0 0 0 0 0 0 0 0 0 0 0 0 0 127 0" result="hardAlpha"/>
<feOffset dy="4"/>
<feGaussianBlur stdDeviation="8"/>
<feColorMatrix type="matrix" values="0 0 0 0 0 0 0 0 0 0 0 0 0 0 0 0 0 0 0.25 0"/>
<feBlend mode="normal" in2="BackgroundImageFix" result="effect1_dropShadow_397_2936"/>
<feBlend mode="normal" in="SourceGraphic" in2="effect1_dropShadow_397_2936" result="shape"/>
</filter>
<filter id="filter5_i_397_2936" x="40" y="50.45" width="71" height="68.0739" filterUnits="userSpaceOnUse" color-interpolation-filters="sRGB">
<feFlood flood-opacity="0" result="BackgroundImageFix"/>
<feBlend mode="normal" in="SourceGraphic" in2="BackgroundImageFix" result="shape"/>
<feColorMatrix in="SourceAlpha" type="matrix" values="0 0 0 0 0 0 0 0 0 0 0 0 0 0 0 0 0 0 127 0" result="hardAlpha"/>
<feOffset dy="-3.55"/>
<feGaussianBlur stdDeviation="8.875"/>
<feComposite in2="hardAlpha" operator="arithmetic" k2="-1" k3="1"/>
<feColorMatrix type="matrix" values="0 0 0 0 0 0 0 0 0 0 0 0 0 0 0 0 0 0 0.25 0"/>
<feBlend mode="normal" in2="shape" result="effect1_innerShadow_397_2936"/>
</filter>
<filter id="filter6_i_397_2936" x="56.6172" y="70.6172" width="37.7471" height="37.7471" filterUnits="userSpaceOnUse" color-interpolation-filters="sRGB">
<feFlood flood-opacity="0" result="BackgroundImageFix"/>
<feBlend mode="normal" in="SourceGraphic" in2="BackgroundImageFix" result="shape"/>
<feColorMatrix in="SourceAlpha" type="matrix" values="0 0 0 0 0 0 0 0 0 0 0 0 0 0 0 0 0 0 127 0" result="hardAlpha"/>
<feMorphology radius="31.2004" operator="dilate" in="SourceAlpha" result="effect1_innerShadow_397_2936"/>
<feOffset dx="10.8523" dy="-32.5569"/>
<feGaussianBlur stdDeviation="12.2088"/>
<feComposite in2="hardAlpha" operator="arithmetic" k2="-1" k3="1"/>
<feColorMatrix type="matrix" values="0 0 0 0 0.462111 0 0 0 0 0.203767 0 0 0 0 0.504167 0 0 0 0.35 0"/>
<feBlend mode="normal" in2="shape" result="effect1_innerShadow_397_2936"/>
</filter>
<filter id="filter7_ii_397_2936" x="148.975" y="100.489" width="69.7587" height="78.4151" filterUnits="userSpaceOnUse" color-interpolation-filters="sRGB">
<feFlood flood-opacity="0" result="BackgroundImageFix"/>
<feBlend mode="normal" in="SourceGraphic" in2="BackgroundImageFix" result="shape"/>
<feColorMatrix in="SourceAlpha" type="matrix" values="0 0 0 0 0 0 0 0 0 0 0 0 0 0 0 0 0 0 127 0" result="hardAlpha"/>
<feOffset dx="1.33258" dy="-6.66288"/>
<feGaussianBlur stdDeviation="7.66231"/>
<feComposite in2="hardAlpha" operator="arithmetic" k2="-1" k3="1"/>
<feColorMatrix type="matrix" values="0 0 0 0 0.796575 0 0 0 0 0.16125 0 0 0 0 0.9 0 0 0 0.6 0"/>
<feBlend mode="normal" in2="shape" result="effect1_innerShadow_397_2936"/>
<feColorMatrix in="SourceAlpha" type="matrix" values="0 0 0 0 0 0 0 0 0 0 0 0 0 0 0 0 0 0 127 0" result="hardAlpha"/>
<feOffset dx="-1.99886" dy="5.3303"/>
<feGaussianBlur stdDeviation="3.99773"/>
<feComposite in2="hardAlpha" operator="arithmetic" k2="-1" k3="1"/>
<feColorMatrix type="matrix" values="0 0 0 0 1 0 0 0 0 1 0 0 0 0 1 0 0 0 0.6 0"/>
<feBlend mode="normal" in2="effect1_innerShadow_397_2936" result="effect2_innerShadow_397_2936"/>
</filter>
<filter id="filter8_f_397_2936" x="142.962" y="128.025" width="88.2122" height="64.3795" filterUnits="userSpaceOnUse" color-interpolation-filters="sRGB">
<feFlood flood-opacity="0" result="BackgroundImageFix"/>
<feBlend mode="normal" in="SourceGraphic" in2="BackgroundImageFix" result="shape"/>
<feGaussianBlur stdDeviation="10.6606" result="effect1_foregroundBlur_397_2936"/>
</filter>
<filter id="filter9_i_397_2936" x="109.499" y="117.499" width="26.2935" height="63.002" filterUnits="userSpaceOnUse" color-interpolation-filters="sRGB">
<feFlood flood-opacity="0" result="BackgroundImageFix"/>
<feBlend mode="normal" in="SourceGraphic" in2="BackgroundImageFix" result="shape"/>
<feColorMatrix in="SourceAlpha" type="matrix" values="0 0 0 0 0 0 0 0 0 0 0 0 0 0 0 0 0 0 127 0" result="hardAlpha"/>
<feMorphology radius="26.45" operator="dilate" in="SourceAlpha" result="effect1_innerShadow_397_2936"/>
<feOffset dx="9.2" dy="-9"/>
<feGaussianBlur stdDeviation="10.35"/>
<feComposite in2="hardAlpha" operator="arithmetic" k2="-1" k3="1"/>
<feColorMatrix type="matrix" values="0 0 0 0 0.462111 0 0 0 0 0.203767 0 0 0 0 0.504167 0 0 0 0.35 0"/>
<feBlend mode="normal" in2="shape" result="effect1_innerShadow_397_2936"/>
</filter>
<radialGradient id="paint0_radial_397_2936" cx="0" cy="0" r="1" gradientUnits="userSpaceOnUse" gradientTransform="translate(109 16) rotate(86.5167) scale(230.426)">
<stop offset="0.576389" stop-color="#FFBB0C"/>
<stop offset="1" stop-color="#FFC907"/>
</radialGradient>
<clipPath id="clip0_397_2936">
<rect width="246" height="246" fill="white"/>
</clipPath>
</defs>
</svg>